HIERARCHY
ROOT Hips
{
  OFFSET 0 0 0
  CHANNELS 6 Xposition Yposition Zposition Zrotation Xrotation Yrotation
  JOINT Spine
  {
    OFFSET 0 10 0
    CHANNELS 3 Zrotation Xrotation Yrotation
    JOINT Neck
    {
      OFFSET 0 30 0
      CHANNELS 3 Zrotation Xrotation Yrotation
      JOINT Head
      {
        OFFSET 0 8 0
        CHANNELS 3 Zrotation Xrotation Yrotation
        End Site
        {
          OFFSET 0 10 0
        }
      }
    }
    JOINT LeftArm
    {
      OFFSET 15 30 0
      CHANNELS 3 Zrotation Xrotation Yrotation
      JOINT LeftForeArm
      {
        OFFSET 25 0 0
        CHANNELS 3 Zrotation Xrotation Yrotation
        JOINT LeftHand
        {
          OFFSET 25 0 0
          CHANNELS 3 Zrotation Xrotation Yrotation
          End Site
          {
            OFFSET 10 0 0
          }
        }
      }
    }
    JOINT RightArm
    {
      OFFSET -15 30 0
      CHANNELS 3 Zrotation Xrotation Yrotation
      JOINT RightForeArm
      {
        OFFSET -25 0 0
        CHANNELS 3 Zrotation Xrotation Yrotation
        JOINT RightHand
        {
          OFFSET -25 0 0
          CHANNELS 3 Zrotation Xrotation Yrotation
          End Site
          {
            OFFSET -10 0 0
          }
        }
      }
    }
  }
  JOINT LeftUpLeg
  {
    OFFSET 10 -10 0
    CHANNELS 3 Zrotation Xrotation Yrotation
    JOINT LeftLeg
    {
      OFFSET 0 -35 0
      CHANNELS 3 Zrotation Xrotation Yrotation
      JOINT LeftToe
      {
        OFFSET 0 -40 0
        CHANNELS 3 Zrotation Xrotation Yrotation
        JOINT LeftToeEnd
        {
          OFFSET 0 0 0
          CHANNELS 3 Zrotation Xrotation Yrotation
          End Site
          {
            OFFSET 0 0 15
          }
        }
      }
    }
  }
  JOINT RightUpLeg
  {
    OFFSET -10 -10 0
    CHANNELS 3 Zrotation Xrotation Yrotation
    JOINT RightLeg
    {
      OFFSET 0 -35 0
      CHANNELS 3 Zrotation Xrotation Yrotation
      JOINT RightToe
      {
        OFFSET 0 -40 0
        CHANNELS 3 Zrotation Xrotation Yrotation
        JOINT RightToeEnd
        {
          OFFSET 0 0 0
          CHANNELS 3 Zrotation Xrotation Yrotation
          End Site
          {
            OFFSET 0 0 15
          }
        }
      }
    }
  }
}
MOTION
Frames:	11
Frame Time:	0.0333333 
-50.6425 87.6914 -62.501 3.14567 -15.4004 -175.185 4.20402 -13.2028 -2.21237 -7.99987 -22.2936 -2.63631 13.4459 35.1967 -8.24308 -71.1885 58.917 -13.079 17.9308 -4.50356 -24.6138 8.44749 -32.1948 -0.569009 94.3429 42.9468 -7.52961 -17.1874 -4.87548 18.4541 2.21037 7.41067 1.45307 -0.125383 -21.1911 -3.24667 -0.0486475 27.1993 1.38104 1.42062 -20.6947 12.6973 2.48481e-017 9.93923e-017 3.18055e-015 2.78139 -26.4325 -3.90041 -3.63391 33.7354 -4.59667 -0.21191 -19.6283 -17.9712 5.96354e-016 0 -0 
-50.4319 87.7017 -62.6891 2.97791 -15.3935 -175.839 4.26412 -13.182 -2.02571 -8.12436 -22.2674 -2.61773 13.3697 35.4637 -8.46592 -72.7281 58.2528 -11.4118 17.6732 -4.26238 -24.1799 8.43179 -31.9446 -0.576835 94.3861 43.9345 -7.40712 -17.1939 -4.81083 18.3732 2.21362 8.16572 1.29639 -0.0577872 -21.2155 -3.51097 -0.0677806 27.1496 1.39076 1.28932 -20.643 12.8523 -4.96962e-017 1.98785e-016 6.36111e-015 3.10006 -25.7929 -3.14784 -3.50806 32.7511 -4.53579 -0.29417 -19.5653 -18.2992 -5.96354e-016 -3.97569e-016 6.36111e-015 
-50.1592 87.6684 -62.8645 2.92054 -15.8508 -177.217 4.79235 -13.5056 -1.03388 -8.29536 -22.3816 -2.42263 13.1991 35.8299 -8.7338 -74.4414 57.3178 -9.81398 17.3762 -3.99597 -23.6884 8.38398 -31.5454 -0.595139 94.1277 44.4299 -7.08651 -17.2801 -4.84673 18.491 2.20276 8.07772 1.32393 0.135637 -21.8249 -4.04997 -0.0767979 27.5127 1.46717 1.37604 -20.8062 13.9883 2.48481e-017 9.93923e-017 -0 3.60038 -25.8566 -2.42359 -3.39632 31.8073 -4.44414 -0.205558 -19.2706 -17.8128 -9.93923e-016 -3.97569e-016 -0 
-49.8627 87.6352 -62.9931 2.81245 -16.2733 -178.29 4.99056 -14.0204 -0.369933 -8.27201 -21.9059 -2.25577 13.1059 35.9316 -8.94752 -76.0172 56.6126 -8.05654 17.122 -3.74323 -23.256 8.37416 -31.3388 -0.58067 94.227 45.4385 -6.99482 -17.2425 -4.8532 18.4348 2.22652 8.89683 1.26197 0.258343 -22.4524 -4.63113 -0.0863885 27.7875 1.52827 1.36041 -20.8587 14.7965 4.96962e-017 0 1.59028e-015 4.06907 -25.884 -1.70074 -3.28372 30.9146 -4.42088 -0.212233 -19.0374 -17.9231 3.97569e-016 -3.97569e-016 -6.36111e-015 
-49.6288 87.6495 -63.1565 2.80388 -16.424 -179.033 5.29697 -14.2626 -0.0528148 -8.46126 -21.5625 -2.20726 13.0299 36.0649 -9.13036 -77.6141 55.767 -6.37544 16.8303 -3.46305 -22.7681 8.35445 -31.0192 -0.573928 94.2838 46.1109 -6.93933 -17.3018 -4.87831 18.5006 2.23359 9.47183 1.2003 0.468897 -22.6851 -5.06686 -0.10045 27.8687 1.56838 1.27158 -20.8667 15.2086 4.96962e-017 3.97569e-016 1.59028e-015 4.58028 -25.2747 -1.01173 -3.21213 29.6089 -4.33959 -0.261116 -18.7788 -18.0518 -1.98785e-016 0 -0 
-49.3675 87.6137 -63.3332 2.66607 -16.4462 -179.945 5.44736 -14.1132 0.449698 -8.61202 -21.8168 -2.17718 13.1163 36.5398 -9.57466 -78.8411 54.9268 -5.00043 16.641 -3.3046 -22.4653 8.33735 -30.8497 -0.575839 93.936 46.6208 -6.28497 -17.4012 -4.89675 18.6209 2.196 9.27164 1.25882 0.477626 -22.7884 -5.7485 -0.113678 28.0017 1.58028 1.27998 -20.919 15.8953 2.48481e-017 0 -0 4.97898 -24.7381 -0.220627 -3.15732 28.6999 -4.29425 -0.236646 -18.7044 -18.2349 8.94531e-016 -3.97569e-016 3.18055e-015 
-49.108 87.5824 -63.4686 2.47253 -16.6193 179.234 5.47806 -14.4879 0.858636 -8.45282 -21.2047 -2.08351 12.775 36.5135 -9.78543 -80.2054 54.2223 -3.46884 16.3053 -2.97124 -21.9036 8.35585 -30.6146 -0.545927 94.1087 47.6347 -6.3644 -17.3008 -4.85635 18.4348 2.23065 10.3089 1.14446 0.46488 -23.0648 -6.2524 -0.128508 28.0258 1.61489 1.26895 -20.861 16.303 3.72721e-017 9.93923e-017 -0 5.27501 -24.3818 0.446218 -3.09919 27.7887 -4.28066 -0.19716 -18.5972 -18.4824 -1.98785e-016 0 -6.36111e-015 
-48.8428 87.5281 -63.507 2.58577 -17.1453 178.907 5.65121 -14.8068 1.17673 -8.52977 -21.2718 -2.22287 12.9536 36.685 -10.4035 -81.0488 53.5444 -2.5083 15.9866 -2.71285 -21.4023 8.2767 -30.2565 -0.570999 93.795 48.0636 -5.81311 -17.5816 -4.97642 18.8553 2.19474 9.29655 1.23788 0.801902 -24.1003 -6.57049 -0.153837 28.4685 1.73603 1.03988 -20.85 16.2113 -1.36664e-016 -9.93923e-017 -0 5.92769 -24.3575 1.39135 -3.03711 26.7195 -4.25532 -0.334013 -18.3743 -19.2405 -5.96354e-016 0 -3.18055e-015 
-48.5707 87.4673 -63.6943 2.3638 -17.2006 177.74 6.00036 -14.8865 1.62303 -8.79653 -20.9445 -2.06966 12.7036 36.8535 -10.4332 -82.7249 52.3696 -0.931088 15.6986 -2.43394 -20.9295 8.16507 -30.045 -0.585632 93.4642 48.9554 -5.63621 -17.5466 -4.98729 18.8208 2.1983 9.70721 1.2495 0.773425 -24.221 -7.1095 -0.196994 28.6035 1.63679 1.18028 -20.9353 16.8631 1.86361e-017 -9.93923e-017 -1.59028e-015 6.12954 -23.9746 1.76876 -2.97539 25.943 -4.20197 -0.1536 -18.3131 -18.7546 0 9.93923e-017 -0 
-48.3339 87.4007 -63.9112 2.4283 -17.122 176.783 6.51158 -14.9236 2.35332 -8.94674 -20.3937 -1.87059 12.6389 36.8247 -10.6155 -84.2843 51.4544 0.626423 15.4624 -2.17929 -20.5329 8.15904 -29.9586 -0.588897 93.1098 48.7177 -5.30522 -17.9491 -5.24652 19.4976 2.12226 7.45917 1.61206 1.04595 -24.3168 -7.30783 -0.205024 29.002 1.63409 1.17749 -21.1559 17.2138 -6.21202e-018 -4.96962e-017 -1.59028e-015 6.55054 -23.1852 2.20881 -2.89914 24.8543 -4.11062 -0.0240614 -18.2198 -18.2632 -4.47266e-016 1.49089e-016 -3.18055e-015 
-48.0543 87.2654 -63.9724 2.2989 -17.7186 175.705 6.88151 -14.9579 2.97506 -9.47447 -21.0716 -2.00502 13.0103 37.3766 -11.2334 -85.4183 49.4654 1.55872 15.2419 -1.97109 -20.1773 8.2436 -29.6108 -0.569537 92.2134 49.3398 -4.32076 -17.8896 -5.20647 19.3933 2.1336 7.75594 1.55642 1.28472 -25.4562 -7.13321 -0.212104 29.6306 1.73019 1.09218 -21.2619 17.4854 -2.79541e-017 0 1.59028e-015 6.90153 -23.647 2.68966 -2.85259 24.3862 -4.12718 0.186155 -18.1475 -18.131 -1.73937e-016 6.21202e-017 -0 
